# xmcd
#
# Track frame offsets:
#	150
#	16325
#	32623
#	51902
#	67611
#	85829
#	105835
#	121734
#	144526
#	164744
#	182256
#	199003
#
# Disc length: 2868 seconds
#
# Revision: 1
# Processed by: cddbd v1.5.2PL0 Copyright (c) Steve Scherf et al.
# Submitted via: audiograbber 1.83.01
#
DISCID=8d0b320c
DTITLE=жалеккос - г ьувг тоу паяту
DYEAR=2006
DGENRE=емтевмо
TTITLE0=ти паяалухи ма соу пы
TTITLE1=сто дийо тоу йосло
TTITLE2=лиа пацылемг йаядиа
TTITLE3=се пеяилема
TTITLE4=г ьувг тоу паяту
TTITLE5=то цйолемайи лоу
TTITLE6=о йуяиос йоу
TTITLE7=сйотеимг покг
TTITLE8=г коукоудоу
TTITLE9=жетос дем йатакаба йакойаияи
TTITLE10=то лецако выяио
TTITLE11=ема тяацоудайи циа то типота
EXTD=
EXTT0=
EXTT1=
EXTT2=
EXTT3=
EXTT4=
EXTT5=
EXTT6=
EXTT7=
EXTT8=
EXTT9=
EXTT10=
EXTT11=
PLAYORDER=
